<svg width="720" height="180" viewBox="0 0 720 180" fill="none" xmlns="http://www.w3.org/2000/svg" role="img" aria-labelledby="title desc">
  <title id="title">Cashbrite logo</title>
  <desc id="desc">Cashbrite navy wordmark with a small mint four-point sparkle near the i.</desc>
  <path d="M84.34 117.2C72.38 117.2 62.7 113.55 55.3 106.25C47.9 98.95 44.2 89.45 44.2 77.75C44.2 66.05 47.9 56.55 55.3 49.25C62.7 41.95 72.38 38.3 84.34 38.3C92.2 38.3 99.08 40 104.98 43.4C110.88 46.8 115.37 51.6 118.45 57.8L101.56 67.52C98.17 60.8 92.48 57.44 84.49 57.44C78.03 57.44 72.78 59.3 68.74 63.02C64.7 66.74 62.68 71.65 62.68 77.75C62.68 83.85 64.7 88.76 68.74 92.48C72.78 96.2 78.03 98.06 84.49 98.06C92.48 98.06 98.17 94.7 101.56 87.98L118.45 97.7C115.37 103.9 110.88 108.7 104.98 112.1C99.08 115.5 92.2 117.2 84.34 117.2Z" fill="#071D2B"/>
  <path d="M148.83 117.2C140.76 117.2 134.25 114.86 129.31 110.18C124.37 105.5 121.9 99.35 121.9 91.73C121.9 84.11 124.37 77.96 129.31 73.28C134.25 68.6 140.76 66.26 148.83 66.26C154.85 66.26 159.79 68.12 163.64 71.84V67.7H181.12V115.76H163.64V111.62C159.79 115.34 154.85 117.2 148.83 117.2ZM151.72 101.06C155.31 101.06 158.24 100.17 160.51 98.39C162.78 96.61 163.91 94.39 163.91 91.73C163.91 89.07 162.78 86.85 160.51 85.07C158.24 83.29 155.31 82.4 151.72 82.4C148.13 82.4 145.21 83.29 142.94 85.07C140.67 86.85 139.54 89.07 139.54 91.73C139.54 94.39 140.67 96.61 142.94 98.39C145.21 100.17 148.13 101.06 151.72 101.06Z" fill="#071D2B"/>
  <path d="M211.84 117.2C204.74 117.2 198.96 115.84 194.5 113.12C190.04 110.4 187.06 106.58 185.56 101.66L200.81 96.5C202.24 100.54 206.03 102.56 212.17 102.56C216.66 102.56 218.91 101.51 218.91 99.41C218.91 98.05 218.16 97.06 216.66 96.44C215.16 95.82 212.58 95.25 208.93 94.73C202.47 93.75 197.4 92.16 193.71 89.96C190.02 87.76 188.18 84.17 188.18 79.19C188.18 75.09 189.86 71.85 193.22 69.48C196.58 67.11 201.56 65.93 208.15 65.93C221.03 65.93 229.38 70.65 233.2 80.09L218.5 85.43C216.94 81.65 213.51 79.76 208.21 79.76C204.04 79.76 201.95 80.71 201.95 82.61C201.95 83.77 202.6 84.61 203.9 85.13C205.2 85.65 207.63 86.17 211.19 86.69C218.43 87.73 223.88 89.45 227.53 91.85C231.18 94.25 233 97.95 233 102.95C233 107.43 231.14 110.92 227.42 113.42C223.7 115.94 218.5 117.2 211.84 117.2Z" fill="#071D2B"/>
  <path d="M237.68 115.76V37.4H255.16V72.17C259.01 68.23 264.14 66.26 270.54 66.26C276.94 66.26 282.01 68.28 285.74 72.32C289.47 76.36 291.33 81.86 291.33 88.82V115.76H273.85V91.1C273.85 85.58 271.19 82.82 265.87 82.82C262.87 82.82 260.37 83.82 258.36 85.82C256.35 87.82 255.34 90.54 255.34 93.98V115.76H237.68Z" fill="#071D2B"/>
  <path d="M300.68 115.76V39.74H318.16V71.75C322.01 68.09 326.82 66.26 332.58 66.26C339.68 66.26 345.47 68.61 349.96 73.31C354.45 78.01 356.69 84.15 356.69 91.73C356.69 99.31 354.45 105.45 349.96 110.15C345.47 114.85 339.68 117.2 332.58 117.2C326.82 117.2 322.01 115.37 318.16 111.71V115.76H300.68ZM329.58 101.06C332.91 101.06 335.68 100.17 337.88 98.39C340.08 96.61 341.18 94.39 341.18 91.73C341.18 89.07 340.08 86.85 337.88 85.07C335.68 83.29 332.91 82.4 329.58 82.4C326.05 82.4 323.21 83.29 321.07 85.07C318.93 86.85 317.86 89.07 317.86 91.73C317.86 94.39 318.93 96.61 321.07 98.39C323.21 100.17 326.05 101.06 329.58 101.06Z" fill="#071D2B"/>
  <path d="M365.1 115.76V67.7H382.58V75.11C385.84 69.51 391.11 66.71 398.38 66.71H402.16V83.69H397.66C392.34 83.69 388.54 84.91 386.26 87.35C383.98 89.79 382.84 93.89 382.84 99.65V115.76H365.1Z" fill="#071D2B"/>
  <path d="M410.02 115.76V67.7H427.5V115.76H410.02Z" fill="#071D2B"/>
  <path d="M466.85 117.2C459.49 117.2 453.53 114.84 448.98 110.12C444.43 105.4 442.15 99.27 442.15 91.73C442.15 84.19 444.43 78.06 448.98 73.34C453.53 68.62 459.49 66.26 466.85 66.26C472.67 66.26 477.48 68.09 481.26 71.75V39.74H498.74V115.76H481.26V111.71C477.48 115.37 472.67 117.2 466.85 117.2ZM469.92 101.06C473.38 101.06 476.2 100.17 478.37 98.39C480.54 96.61 481.63 94.39 481.63 91.73C481.63 89.07 480.54 86.85 478.37 85.07C476.2 83.29 473.38 82.4 469.92 82.4C466.53 82.4 463.77 83.29 461.64 85.07C459.51 86.85 458.44 89.07 458.44 91.73C458.44 94.39 459.51 96.61 461.64 98.39C463.77 100.17 466.53 101.06 469.92 101.06Z" fill="#071D2B"/>
  <path d="M533.18 117.2C525.12 117.2 518.65 114.87 513.77 110.21C508.89 105.55 506.45 99.39 506.45 91.73C506.45 84.07 508.88 77.91 513.74 73.25C518.6 68.59 525.02 66.26 533 66.26C540.78 66.26 547.01 68.49 551.69 72.95C556.37 77.41 558.71 83.43 558.71 91.01C558.71 92.31 558.61 93.83 558.41 95.57H523.48C524.13 98.11 525.43 100.04 527.38 101.36C529.33 102.68 531.8 103.34 534.79 103.34C539.32 103.34 542.74 101.82 545.04 98.78L557.54 106.91C552.36 113.77 544.24 117.2 533.18 117.2ZM523.48 86.06H541.87C541.35 83.82 540.27 82.08 538.63 80.84C536.99 79.6 534.94 78.98 532.48 78.98C527.62 78.98 524.62 81.34 523.48 86.06Z" fill="#071D2B"/>
  <path d="M585.3 115.76C579.28 115.76 574.64 114.24 571.38 111.2C568.12 108.16 566.49 103.84 566.49 98.24V82.49H558.8V67.7H566.49V54.65H583.97V67.7H596.11V82.49H583.97V96.26C583.97 99.04 585.39 100.43 588.22 100.43H596.11V115.76H585.3Z" fill="#071D2B"/>
  <path d="M621.61 117.2C613.55 117.2 607.08 114.87 602.2 110.21C597.32 105.55 594.88 99.39 594.88 91.73C594.88 84.07 597.31 77.91 602.17 73.25C607.03 68.59 613.45 66.26 621.43 66.26C629.21 66.26 635.44 68.49 640.12 72.95C644.8 77.41 647.14 83.43 647.14 91.01C647.14 92.31 647.04 93.83 646.84 95.57H611.91C612.56 98.11 613.86 100.04 615.81 101.36C617.76 102.68 620.23 103.34 623.22 103.34C627.75 103.34 631.17 101.82 633.47 98.78L645.97 106.91C640.79 113.77 632.67 117.2 621.61 117.2ZM611.91 86.06H630.3C629.78 83.82 628.7 82.08 627.06 80.84C625.42 79.6 623.37 78.98 620.91 78.98C616.05 78.98 613.05 81.34 611.91 86.06Z" fill="#071D2B"/>
  <path d="M421.55 35L426.24 48.27L439.5 52.95L426.24 57.63L421.55 70.9L416.87 57.63L403.6 52.95L416.87 48.27L421.55 35Z" fill="#B9EAD8"/>
</svg>
